<svg version="1.1" width="24" height="24" xmlns="http://www.w3.org/2000/svg" xmlns:xlink="http://www.w3.org/1999/xlink" viewBox="0 0 172 172"><g fill="none" fill-rule="nonzero" stroke="none" stroke-width="1" stroke-linecap="butt" stroke-linejoin="miter" stroke-miterlimit="10" stroke-dasharray="" stroke-dashoffset="0" font-family="none" font-weight="none" font-size="none" text-anchor="none" style="mix-blend-mode: normal"><path d="M0,172v-172h172v172z" fill="none"></path><g fill="#70b5f9"><path d="M24.08,13.76c-9.44656,0 -17.2,7.75344 -17.2,17.2v82.56c0,9.44656 7.75344,17.2 17.2,17.2h14.0825c0.47031,4.13875 0.41656,7.96844 -0.645,11.18c-1.30344,3.95063 -3.73562,7.26969 -8.2775,9.9975c-1.27656,0.80625 -1.86781,2.35156 -1.47812,3.80281c0.38969,1.45125 1.69312,2.48594 3.19812,2.53969c14.59313,0 31.32281,-7.61906 39.775,-27.52h77.185c9.44656,0 17.2,-7.75344 17.2,-17.2v-82.56c0,-9.44656 -7.75344,-17.2 -17.2,-17.2zM24.08,20.64h123.84c5.6975,0 10.32,4.6225 10.32,10.32v82.56c0,5.6975 -4.6225,10.32 -10.32,10.32h-79.12c-1.43781,0 -2.72781,0.90031 -3.225,2.2575c-5.34812,14.59313 -14.90219,21.54031 -24.8325,24.08c1.34375,-1.92156 2.62031,-3.95062 3.3325,-6.1275c1.78719,-5.42875 1.63938,-11.36812 0.5375,-17.415c-0.30906,-1.59906 -1.69312,-2.76812 -3.3325,-2.795h-17.2c-5.6975,0 -10.32,-4.6225 -10.32,-10.32v-82.56c0,-5.6975 4.6225,-10.32 10.32,-10.32z"></path></g></g></svg>