<svg version="1.1" width="32" height="32"  xmlns="http://www.w3.org/2000/svg" xmlns:xlink="http://www.w3.org/1999/xlink" viewBox="0 0 172 172"><g fill="none" fill-rule="nonzero" stroke="none" stroke-width="1" stroke-linecap="butt" stroke-linejoin="miter" stroke-miterlimit="10" stroke-dasharray="" stroke-dashoffset="0" font-family="none" font-weight="none" font-size="none" text-anchor="none" style="mix-blend-mode: normal"><path d="M0,172v-172h172v172z" fill="none"></path><g fill="#000000"><path d="M27.52,68.8c-11.395,0 -20.64,9.245 -20.64,20.64c0,11.395 9.245,20.64 20.64,20.64c11.395,0 20.64,-9.245 20.64,-20.64c0,-11.395 -9.245,-20.64 -20.64,-20.64zM86,68.8c-11.395,0 -20.64,9.245 -20.64,20.64c0,11.395 9.245,20.64 20.64,20.64c11.395,0 20.64,-9.245 20.64,-20.64c0,-11.395 -9.245,-20.64 -20.64,-20.64zM144.48,68.8c-11.395,0 -20.64,9.245 -20.64,20.64c0,11.395 9.245,20.64 20.64,20.64c11.395,0 20.64,-9.245 20.64,-20.64c0,-11.395 -9.245,-20.64 -20.64,-20.64z"></path></g></g></svg>