<svg version="1.1" width="24" height="24" xmlns="http://www.w3.org/2000/svg" xmlns:xlink="http://www.w3.org/1999/xlink" viewBox="0 0 172 172"><g fill="none" fill-rule="nonzero" stroke="none" stroke-width="1" stroke-linecap="butt" stroke-linejoin="miter" stroke-miterlimit="10" stroke-dasharray="" stroke-dashoffset="0" font-family="none" font-weight="none" font-size="none" text-anchor="none" style="mix-blend-mode: normal"><path d="M0,172v-172h172v172z" fill="none"></path><g fill="#e67e22"><path d="M47.91566,14.04082c-3.86122,0 -7.54831,2.28163 -7.54831,6.14286v9.65306h-11.23334c-3.59791,-0.10009 -7.07602,1.29738 -9.60449,3.85899c-2.52847,2.56161 -3.88053,6.05762 -3.7336,9.65392v101.44627c0,7.72245 5.61564,14.91837 13.33809,14.91837h113.73198c7.72245,0 13.33809,-7.19592 13.33809,-14.91837v-101.44627c0.14693,-3.5963 -1.20513,-7.09232 -3.7336,-9.65392c-2.52847,-2.56161 -6.00658,-3.95908 -9.60449,-3.85899h-11.23334v-9.65306c0,-3.86122 -3.68709,-6.14286 -7.54831,-6.14286h-10.35236c-3.86122,0 -6.67076,2.28163 -6.67076,6.14286v9.65306h-42.12245v-9.65306c0,-3.86122 -2.80953,-6.14286 -6.67076,-6.14286zM47.91566,21.06122h10.00271v19.30612h-10.00271zM113.73198,21.06122h10.88026v19.30612h-10.88026zM28.99003,36.85029c0.04802,0.00171 0.09601,0.00399 0.14397,0.00686h11.23334v3.85985c0,3.86122 3.68709,6.67076 7.54831,6.67076h10.35236c1.78385,0.04929 3.50937,-0.63768 4.77122,-1.89954c1.26185,-1.26185 1.94882,-2.98737 1.89954,-4.77122v-3.85985h42.12245v3.85985c-0.04929,1.78385 0.63768,3.50937 1.89954,4.77122c1.26185,1.26185 2.98737,1.94882 4.77122,1.89954h10.35236c3.86122,0 7.54831,-2.80953 7.54831,-6.67076v-3.85985h11.23334c1.73792,-0.1093 3.43687,0.54599 4.65128,1.794c1.2144,1.24801 1.82309,2.96422 1.6664,4.6985v19.83402h-126.36735v-19.83402c-0.15428,-1.70915 0.43474,-3.402 1.61663,-4.64624c1.1819,-1.24424 2.84225,-1.91942 4.55708,-1.85313zM22.81633,70.20408h126.36735v74.59184c0,3.86122 -2.45646,7.89796 -6.31768,7.89796h-113.73198c-3.86122,0 -6.31768,-4.03673 -6.31768,-7.89796zM84.17634,79.28125c-1.3215,0.02564 -2.51656,0.79143 -3.092,1.98135l-7.89796,15.97074l-17.55102,2.63265c-1.26992,0.21697 -2.33437,1.08127 -2.80748,2.27958c-0.3728,1.29834 -0.04001,2.69711 0.87755,3.68846l12.81362,12.28571l-3.16056,17.55102c-0.21814,1.31362 0.3258,2.63756 1.40445,3.4184c1.07864,0.78084 2.50624,0.8841 3.68603,0.26663l15.79592,-8.25104l15.79592,8.25104l1.58028,0.34965c0.76123,0.01289 1.50396,-0.23508 2.10475,-0.70273c1.04856,-0.76532 1.58912,-2.04686 1.40545,-3.33195l-3.16056,-17.55102l12.81362,-12.28571c0.91756,-0.99134 1.25036,-2.39011 0.87755,-3.68846c-0.4731,-1.1983 -1.53756,-2.06261 -2.80748,-2.27958l-17.55102,-2.63265l-7.89796,-15.97074c-0.59698,-1.23447 -1.85814,-2.00831 -3.22911,-1.98135zM84.2449,90.7374l5.61496,11.23334c0.42146,1.03184 1.35546,1.76524 2.45783,1.92993l12.46054,1.7551l-8.95034,8.60068c-0.83403,0.82586 -1.22484,1.99957 -1.05237,3.16056l2.10475,12.46054l-11.05509,-5.96803l-1.58028,-0.34965l-1.58028,0.34965l-11.05509,5.96803l2.10475,-12.46054c0.17246,-1.16099 -0.21835,-2.3347 -1.05237,-3.16056l-8.95034,-8.60068l12.46054,-1.7551c1.10236,-0.16469 2.03637,-0.89809 2.45783,-1.92993z"></path></g></g></svg>