<svg version="1.1" width="24" height="24" xmlns="http://www.w3.org/2000/svg" xmlns:xlink="http://www.w3.org/1999/xlink" viewBox="0 0 172 172"><g fill="none" fill-rule="nonzero" stroke="none" stroke-width="1" stroke-linecap="butt" stroke-linejoin="miter" stroke-miterlimit="10" stroke-dasharray="" stroke-dashoffset="0" font-family="none" font-weight="none" font-size="none" text-anchor="none" style="mix-blend-mode: normal"><path d="M0,172v-172h172v172z" fill="none"></path><g fill="#70b5f9"><path d="M95.89966,2.6875c-6.56371,-0.0378 -12.15648,4.75633 -13.12256,11.24866c-0.33325,2.17956 -0.71991,5.39591 -1.13379,8.87085c-0.65844,5.54431 -1.40766,11.82475 -2.1521,15.46362c-0.76538,3.78716 -2.68314,7.24499 -5.49048,9.89966l-11.78406,11.16467c-3.48602,3.31841 -8.11543,5.16792 -12.92835,5.16504h-11.74732v-5.375c0,-1.48427 -1.20323,-2.6875 -2.6875,-2.6875h-26.875c-1.48427,0 -2.6875,1.20323 -2.6875,2.6875v102.125c0,1.48427 1.20323,2.6875 2.6875,2.6875h26.875c1.48427,0 2.6875,-1.20323 2.6875,-2.6875v-5.375h12.89685c4.62417,-0.01151 8.99973,2.09216 11.87854,5.71094c3.89835,4.89533 9.81987,7.74106 16.07776,7.72656h52.43774c8.57116,0.00783 16.06146,-5.78533 18.20886,-14.08313l16.88611,-60.46875l0.01575,-0.05774c1.88482,-7.24157 0.28767,-14.94787 -4.31995,-20.84387c-4.56715,-5.92364 -11.63187,-9.38324 -19.11169,-9.35901h-32.0033c2.15,-14.75169 2.41925,-35.55457 -1.70068,-51.66614c-1.47574,-5.93595 -6.79079,-10.11407 -12.90735,-10.14636zM95.6792,8.0625c0.07348,-0.00103 0.14698,-0.00103 0.22046,0c3.65841,0.03307 6.82765,2.54512 7.69507,6.09937c4.214,16.52544 3.59861,38.30653 1.11804,52.56372c-0.13633,0.78141 0.07949,1.58313 0.58967,2.19049c0.51019,0.60737 1.26262,0.95833 2.05583,0.95892h35.15271c5.80799,0.00002 11.29035,2.68274 14.85426,7.26873c3.56391,4.58599 4.80977,10.56102 3.37559,16.18916l-16.89136,60.50549c-1.52443,5.94368 -6.88152,10.09975 -13.01758,10.09912h-52.43774c-4.62601,0.01312 -9.00384,-2.09072 -11.88379,-5.71094c-3.89695,-4.8942 -9.81637,-7.73985 -16.07251,-7.72656h-12.9021v-80.625h11.74732c6.19341,0.01107 12.15285,-2.36519 16.6394,-6.63477l11.77881,-11.16467c3.61169,-3.41259 6.07952,-7.85871 7.06519,-12.72888c0.78475,-3.85387 1.54321,-10.25286 2.21509,-15.89929c0.40581,-3.41313 0.78236,-6.56376 1.10755,-8.69763c0.56619,-3.77879 3.77008,-6.60157 7.59009,-6.68726zM10.66602,61.8125h21.5v96.75h-21.5zM21.41602,64.5c-4.4528,0 -8.0625,3.6097 -8.0625,8.0625c0,4.4528 3.6097,8.0625 8.0625,8.0625c4.4528,0 8.0625,-3.6097 8.0625,-8.0625c0,-4.4528 -3.6097,-8.0625 -8.0625,-8.0625zM21.30054,69.875c0.73256,-0.03151 1.44618,0.23767 1.97545,0.74513c0.52926,0.50746 0.82821,1.20914 0.82753,1.94237c0,1.48427 -1.20323,2.6875 -2.6875,2.6875c-1.48427,0.03189 -2.71335,-1.1455 -2.74524,-2.62976c-0.03189,-1.48427 1.1455,-2.71335 2.62976,-2.74524z"></path></g></g></svg>