<svg version="1.1" width="24" height="24" xmlns="http://www.w3.org/2000/svg" xmlns:xlink="http://www.w3.org/1999/xlink" viewBox="0 0 172 172"><g fill="none" fill-rule="nonzero" stroke="none" stroke-width="1" stroke-linecap="butt" stroke-linejoin="miter" stroke-miterlimit="10" stroke-dasharray="" stroke-dashoffset="0" font-family="none" font-weight="none" font-size="none" text-anchor="none" style="mix-blend-mode: normal"><path d="M0,172v-172h172v172z" fill="none"></path><g fill="#70b5f9"><path d="M143.50765,20.8839c-0.31162,0.01589 -0.62391,0.07529 -0.92777,0.18044l-123.52264,42.75789c-1.25674,0.43504 -2.13902,1.57022 -2.24921,2.89549c-0.11019,1.32527 0.57168,2.59121 1.7394,3.22815l51.39253,28.03175l28.03175,51.39253c0.59192,1.08541 1.72651,1.75055 2.94798,1.75055c0.09272,0 0.18612,-0.00409 0.27951,-0.01181c1.32527,-0.11052 2.46111,-0.99214 2.89615,-2.24855l42.75854,-123.52264c0.42059,-1.21542 0.11022,-2.56513 -0.79916,-3.47485c-0.68254,-0.68229 -1.61223,-1.02662 -2.54709,-0.97894zM130.97495,32.1916l-59.15715,59.15715l-43.38252,-23.66326zM135.72728,36.94131l-35.49587,102.54098l-23.6626,-43.38252z"></path></g></g></svg>