<svg version="1.1" width="24" height="24" xmlns="http://www.w3.org/2000/svg" xmlns:xlink="http://www.w3.org/1999/xlink" viewBox="0 0 172 172"><g transform="translate(4.472,4.472) scale(0.948,0.948)"><g fill="none" fill-rule="nonzero" stroke="none" stroke-width="none" stroke-linecap="butt" stroke-linejoin="none" stroke-miterlimit="10" stroke-dasharray="" stroke-dashoffset="0" font-family="none" font-weight="none" font-size="none" text-anchor="none" style="mix-blend-mode: normal"><g fill="#666666" stroke="#666666" stroke-width="7" stroke-linejoin="round"><path d="M147.49297,23.85156c9.27221,0.01074 16.78614,7.52467 16.79688,16.79688v90.70313c-0.01055,9.27228 -7.52459,16.78632 -16.79687,16.79688h-122.94263c-9.27228,-0.01055 -16.78632,-7.52459 -16.79687,-16.79687v-90.70312c0.01055,-9.27228 7.52459,-16.78632 16.79688,-16.79687zM14.47353,40.64844v75.25394l23.41458,-15.59354c5.64254,-3.73178 12.97478,-3.70771 18.5927,0.06102l17.10329,11.44615c4.48466,3.01596 10.55116,1.94784 13.73604,-2.41849l22.87721,-31.23563c3.19436,-4.36127 8.29258,-6.91852 13.69835,-6.87105c5.40577,0.04747 10.45829,2.69385 13.57558,7.11054l20.09982,28.47858v-66.23152c-0.00629,-5.56339 -4.51474,-10.07183 -10.07812,-10.07812h-122.94263c-5.56287,0.00702 -10.07052,4.51525 -10.07681,10.07813zM93.28636,65.88198c-0.25721,12.36859 -10.35379,22.26304 -22.72505,22.27012c-12.55451,-0.01459 -22.72841,-10.1882 -22.74336,-22.74271c0.00007,-6.19586 2.52799,-12.1235 6.99933,-16.41254c4.47134,-4.28904 10.49901,-6.56816 16.68951,-6.31048c12.36027,0.52138 22.03678,10.82702 21.77957,23.19561zM54.5367,65.40677c-0.00014,8.84991 7.174,16.02431 16.02391,16.02448c8.84991,0.00017 16.02433,-7.17395 16.02452,-16.02387c0.00019,-8.84991 -7.17391,-16.02435 -16.02383,-16.02457c-8.84561,0.01033 -16.01392,7.17835 -16.02461,16.02396zM115.61565,82.13081l-22.87721,31.23628c-5.30686,7.27846 -15.41794,9.06009 -22.89296,4.03388l-17.10329,-11.44615c-3.36706,-2.25951 -7.76165,-2.27607 -11.14564,-0.04199l-27.12433,18.06386v7.37488c0.00629,5.56339 4.51474,10.07183 10.07813,10.07813h122.94263c5.56246,-0.00775 10.06949,-4.51566 10.07616,-10.07812v-12.82074l-25.58899,-36.25632c-1.96799,-2.78815 -5.2133,-4.39093 -8.62349,-4.25893c-3.07306,0.1188 -5.92371,1.63425 -7.741,4.11523z"></path></g><path d="M0,172v-172h172v172z" fill="none" stroke="none" stroke-width="1" stroke-linejoin="miter"></path><g fill="#666666" stroke="none" stroke-width="1" stroke-linejoin="miter"><path d="M24.55034,23.85156c-9.27228,0.01055 -16.78632,7.52459 -16.79687,16.79688v90.70313c0.01055,9.27228 7.52459,16.78632 16.79688,16.79688h122.94263c9.27228,-0.01055 16.78632,-7.52459 16.79688,-16.79687v-90.70312c-0.01074,-9.27221 -7.52467,-16.78614 -16.79687,-16.79687zM24.55034,30.57031h122.94263c5.56339,0.00629 10.07183,4.51474 10.07813,10.07813v66.23152l-20.09982,-28.47858c-3.11728,-4.41669 -8.16981,-7.06307 -13.57558,-7.11054c-5.40577,-0.04747 -10.50399,2.50978 -13.69835,6.87105l-22.87721,31.23563c-3.18487,4.36632 -9.25137,5.43445 -13.73604,2.41849l-17.10329,-11.44615c-5.61792,-3.76873 -12.95016,-3.7928 -18.5927,-0.06102l-23.41458,15.59354v-75.25394c0.00629,-5.56287 4.51394,-10.07111 10.07681,-10.07812zM71.50679,42.68637c-6.1905,-0.25768 -12.21817,2.02144 -16.68951,6.31048c-4.47134,4.28904 -6.99925,10.21668 -6.99933,16.41254c0.01495,12.55451 10.18885,22.72811 22.74336,22.74271c12.37126,-0.00707 22.46784,-9.90153 22.72505,-22.27012c0.25721,-12.36859 -9.4193,-22.67423 -21.77957,-23.19561zM70.56131,49.38281c8.84991,0.00022 16.02402,7.17465 16.02383,16.02457c-0.00019,8.84991 -7.17461,16.02404 -16.02452,16.02387c-8.84991,-0.00017 -16.02406,-7.17457 -16.02391,-16.02448c0.0107,-8.84561 7.179,-16.01362 16.02461,-16.02396zM123.35664,78.01558c3.41018,-0.132 6.6555,1.47078 8.62349,4.25893l25.58899,36.25632v12.82074c-0.00666,5.56246 -4.51369,10.07038 -10.07616,10.07813h-122.94263c-5.56339,-0.00629 -10.07183,-4.51474 -10.07812,-10.07812v-7.37488l27.12433,-18.06386c3.38399,-2.23408 7.77858,-2.21752 11.14564,0.04199l17.10329,11.44615c7.47501,5.02621 17.5861,3.24458 22.89296,-4.03388l22.87721,-31.23628c1.81729,-2.48098 4.66793,-3.99643 7.741,-4.11523z"></path></g><path d="" fill="none" stroke="none" stroke-width="1" stroke-linejoin="miter"></path><path d="" fill="none" stroke="none" stroke-width="1" stroke-linejoin="miter"></path></g></g></svg>