<svg version="1.1" width="24" height="24" xmlns="http://www.w3.org/2000/svg" xmlns:xlink="http://www.w3.org/1999/xlink" viewBox="0 0 172 172"><g fill="none" fill-rule="nonzero" stroke="none" stroke-width="1" stroke-linecap="butt" stroke-linejoin="miter" stroke-miterlimit="10" stroke-dasharray="" stroke-dashoffset="0" font-family="none" font-weight="none" font-size="none" text-anchor="none" style="mix-blend-mode: normal"><path d="M0,172v-172h172v172z" fill="none"></path><g fill="#70b5f9"><path d="M168.7922,68.32413l-65.82727,-46.6034c-2.71611,-1.93049 -6.28135,-2.18746 -9.24623,-0.66643c-2.96489,1.52103 -4.83577,4.5668 -4.85203,7.89903v19.8144c-49.50182,1.60463 -88.81537,42.17114 -88.86667,91.69893v5.6502c-0.01875,2.6098 1.71986,4.90598 4.23693,5.59573c0.51872,0.14599 1.05499,0.22026 1.59387,0.22073c2.00388,-0.00398 3.86026,-1.0539 4.89627,-2.7692v0c10.92487,-17.83927 35.4406,-47.50927 78.1396,-48.7878v19.737c0.01331,3.33437 1.88325,6.38356 4.84917,7.90722c2.96592,1.52366 6.53367,1.26793 9.25196,-0.66316l65.82727,-46.61773c2.01081,-1.42799 3.2054,-3.74149 3.2054,-6.20777c0,-2.46627 -1.19459,-4.77978 -3.2054,-6.20777zM165.47833,76.06413l-65.82153,46.60053c-0.98122,0.71116 -2.28218,0.80019 -3.35113,0.22933c-1.05322,-0.52477 -1.71522,-1.60399 -1.70567,-2.78067v-22.64667c0,-1.58322 -1.28345,-2.86667 -2.86667,-2.86667c-47.26273,0 -74.1062,32.3102 -85.8968,51.57133l-0.1032,-0.05447v-5.6502c0.05371,-47.47422 38.52578,-85.94629 86,-86c1.58322,0 2.86667,-1.28345 2.86667,-2.86667v-22.64667c-0.00686,-1.1799 0.6612,-2.25994 1.72,-2.78067c1.06866,-0.56757 2.36697,-0.47865 3.34827,0.22933l65.8072,46.60053c0.49579,0.35154 0.7904,0.9216 0.7904,1.52937c0,0.60777 -0.29462,1.17783 -0.7904,1.52937z"></path></g></g></svg>