<svg version="1.1" width="24" height="24" xmlns="http://www.w3.org/2000/svg" xmlns:xlink="http://www.w3.org/1999/xlink" viewBox="0 0 172 172"><g fill="none" fill-rule="nonzero" stroke="none" stroke-width="1" stroke-linecap="butt" stroke-linejoin="miter" stroke-miterlimit="10" stroke-dasharray="" stroke-dashoffset="0" font-family="none" font-weight="none" font-size="none" text-anchor="none" style="mix-blend-mode: normal"><path d="M0,172v-172h172v172z" fill="none"></path><g fill="#666666"><path d="M86.00328,19.32428c-19.76883,-0.0008 -39.53895,5.23374 -54.70401,15.70508c-15.0369,10.38248 -23.31747,24.30989 -23.31747,39.21611c0,10.59177 4.25651,20.85833 12.31027,29.68979c7.654,8.39306 18.41907,15.1608 31.13196,19.57098c6.16512,2.13891 10.30777,7.90271 10.30777,14.3423v11.46256c0,2.61729 2.87772,4.24107 5.11976,2.86137l40.89974,-25.16907c15.64394,-3.17663 29.76116,-9.89155 39.80334,-18.94372c10.77116,-9.70893 16.46422,-21.40165 16.46422,-33.81421c-0.00034,-14.90622 -8.28155,-28.83363 -23.31879,-39.21611c-15.16069,-10.46815 -34.92796,-15.70428 -54.69679,-15.70508zM85.99934,26.05418c39.31477,0 71.30011,21.61897 71.30011,48.19129c0,21.29205 -21.15488,40.32503 -51.44502,46.28523c-0.39372,0.07727 -0.77015,0.22472 -1.11213,0.43501l-36.29175,22.33328v-5.45045c0,-9.29909 -5.9575,-17.6135 -14.8239,-20.68968c-24.0108,-8.32991 -38.9261,-24.7731 -38.9261,-42.91339c0,-26.57266 31.98403,-48.19129 71.2988,-48.19129zM44.93492,55.2486c-1.85538,0 -3.35937,1.50399 -3.35937,3.35938c0,1.85538 1.50399,3.35938 3.35938,3.35938h40.3125c1.85505,0 3.35938,-1.50399 3.35938,-3.35937c0,-1.85538 -1.50433,-3.35937 -3.35937,-3.35937zM44.93492,68.6861c-1.85538,0 -3.35937,1.50399 -3.35937,3.35938c0,1.85538 1.50399,3.35938 3.35938,3.35938h77.26563c1.85505,0 3.35938,-1.50399 3.35938,-3.35937c0,-1.85538 -1.50433,-3.35937 -3.35937,-3.35937zM44.93492,82.1236c-1.85538,0 -3.35937,1.50399 -3.35937,3.35938c0,1.85505 1.50399,3.35938 3.35938,3.35938h77.26563c1.85505,0 3.35938,-1.50433 3.35938,-3.35937c0,-1.85538 -1.50433,-3.35937 -3.35937,-3.35937z"></path></g></g></svg>