<svg version="1.1" width="24" height="24" xmlns="http://www.w3.org/2000/svg" xmlns:xlink="http://www.w3.org/1999/xlink" viewBox="0 0 172 172"><g fill="none" fill-rule="nonzero" stroke="none" stroke-width="1" stroke-linecap="butt" stroke-linejoin="miter" stroke-miterlimit="10" stroke-dasharray="" stroke-dashoffset="0" font-family="none" font-weight="none" font-size="none" text-anchor="none" style="mix-blend-mode: normal"><path d="M0,172v-172h172v172z" fill="none"></path><g><path d="M153.04441,147.27858l-9.94931,2.01076c-37.66207,7.61422 -76.52221,7.61422 -114.18724,0l-9.95228,-2.01076c-11.03766,-2.23095 -18.95559,-11.73134 -18.95559,-22.74414v-78.06889c0,-11.0128 7.91793,-20.51318 18.95559,-22.74414l9.94931,-2.01076c37.66207,-7.61422 76.52221,-7.61422 114.18724,0l9.94931,2.01076c11.04062,2.23095 18.95855,11.73134 18.95855,22.74414v78.06889c0,11.0128 -7.91793,20.51318 -18.95559,22.74414z" fill="#666666"></path><path d="M62.27586,116.00757v-61.01803c0,-3.161 3.52007,-5.1254 6.30766,-3.51737l52.84552,30.50902c2.73717,1.58195 2.73717,5.4528 0,7.03185l-52.84552,30.50902c-2.78759,1.61092 -6.30766,-0.35058 -6.30766,-3.51448z" fill="#ffffff"></path></g></g></svg>