<svg version="1.1" width="24" height="24" xmlns="http://www.w3.org/2000/svg" xmlns:xlink="http://www.w3.org/1999/xlink" viewBox="0 0 172 172"><g fill="none" fill-rule="nonzero" stroke="none" stroke-width="1" stroke-linecap="butt" stroke-linejoin="miter" stroke-miterlimit="10" stroke-dasharray="" stroke-dashoffset="0" font-family="none" font-weight="none" font-size="none" text-anchor="none" style="mix-blend-mode: normal"><path d="M0,172v-172h172v172z" fill="none"></path><g fill="#86cc2e"><path d="M158.04459,39.50065c-0.57423,-0.06271 -1.15585,0.00537 -1.70768,0.22396l-32.93587,13.17155c-0.84668,-1.66793 -1.88565,-3.24339 -3.2334,-4.59115c-3.36117,-3.36117 -7.91614,-5.24902 -12.66764,-5.24902h-78.83333c-4.7515,0 -9.30648,1.88786 -12.66764,5.24902c-3.36117,3.36117 -5.24902,7.91614 -5.24902,12.66764v50.16666c0,4.75151 1.88786,9.30648 5.24902,12.66765c3.36117,3.36117 7.91614,5.24902 12.66764,5.24902h78.83333c4.7515,0 9.30648,-1.88785 12.66764,-5.24902c1.34775,-1.34776 2.38672,-2.9246 3.2334,-4.59115l32.93587,13.17155c1.10367,0.43717 2.34955,0.30257 3.33138,-0.36393c0.989,-0.6665 1.5817,-1.78494 1.5817,-2.96745v-86c0,-1.18967 -0.5927,-2.30095 -1.5817,-2.96745c-0.49092,-0.33325 -1.04947,-0.52518 -1.6237,-0.58789zM154.08333,48.34701v75.41797l-28.66667,-11.46386v-1.16179v-50.16666v-1.16178zM28.66667,50.22266h78.83333c2.85233,0 5.57959,1.13558 7.60059,3.14941c2.01383,2.01383 3.14941,4.74825 3.14941,7.60059v50.16666c0,2.84517 -1.13558,5.58675 -3.14941,7.60059c-2.021,2.021 -4.74825,3.14941 -7.60059,3.14941h-78.83333c-2.85233,0 -5.57959,-1.12841 -7.60059,-3.14941c-2.01383,-2.01383 -3.14941,-4.75542 -3.14941,-7.60059v-50.16666c0,-2.85233 1.13558,-5.58675 3.14941,-7.60059c2.021,-2.01383 4.74825,-3.14941 7.60059,-3.14941zM75.25,64.55599c-1.978,0 -3.58333,1.60533 -3.58333,3.58333c0,1.978 1.60533,3.58333 3.58333,3.58333h21.5c1.978,0 3.58333,-1.60533 3.58333,-3.58333c0,-1.978 -1.60533,-3.58333 -3.58333,-3.58333z"></path></g></g></svg>