<svg version="1.1" width="24" height="24" xmlns="http://www.w3.org/2000/svg" xmlns:xlink="http://www.w3.org/1999/xlink" viewBox="0 0 172 172"><g fill="none" fill-rule="nonzero" stroke="none" stroke-width="1" stroke-linecap="butt" stroke-linejoin="miter" stroke-miterlimit="10" stroke-dasharray="" stroke-dashoffset="0" font-family="none" font-weight="none" font-size="none" text-anchor="none" style="mix-blend-mode: normal"><path d="M0,172v-172h172v172z" fill="none"></path><g fill="#e74c3c"><path d="M16.22837,19.00631c-7.20974,0 -13.07572,5.85952 -13.07572,13.06926v109.19261c0,6.46841 5.26517,11.72551 11.73197,11.72551h114.75496c6.4668,0 11.72551,-5.2571 11.72551,-11.72551v-45.77794c2.58089,-2.55921 -9.12003,9.04096 24.11644,-23.91617c4.45557,-4.38878 4.49344,-11.49588 0.04522,-15.94411c-4.39742,-4.39741 -11.5556,-4.35283 -15.82783,-0.08398l-8.33383,8.26277v-31.73317c0,-7.20974 -5.86598,-13.06926 -13.07572,-13.06926zM16.22837,25.62169h112.061c3.56126,0 6.46034,2.89262 6.46034,6.45388v24.34255h-124.98167v-24.34255c0,-3.56126 2.89908,-6.45388 6.46034,-6.45388zM25.13717,32.89603c-5.13758,0 -9.31581,4.17822 -9.31581,9.31581c0,5.13758 4.17822,9.32226 9.31581,9.32226c5.13597,0 9.31581,-4.18468 9.31581,-9.32226c0,-5.13758 -4.17984,-9.31581 -9.31581,-9.31581zM49.17608,32.89603c-5.13758,0 -9.32227,4.17822 -9.32227,9.31581c0,5.13758 4.18468,9.32226 9.32227,9.32226c5.13597,0 9.3158,-4.18468 9.3158,-9.32226c0,-5.13758 -4.17983,-9.31581 -9.3158,-9.31581zM73.20853,32.89603c-5.13597,0 -9.3158,4.17822 -9.3158,9.31581c0,5.13758 4.17984,9.32226 9.3158,9.32226c5.13758,0 9.31581,-4.18468 9.31581,-9.32226c0,-5.13758 -4.17822,-9.31581 -9.31581,-9.31581zM97.66737,32.89603c-2.51793,0 -4.86463,0.98682 -6.54432,2.71334c-1.7879,1.74106 -2.77148,4.08293 -2.77148,6.60246c0,5.13758 4.17983,9.32226 9.3158,9.32226h21.71965c2.49369,0 4.83879,-0.97874 6.60246,-2.74564c1.74913,-1.74591 2.71334,-4.08293 2.71334,-6.57662c0,-5.13758 -4.17822,-9.31581 -9.3158,-9.31581zM25.13717,39.51142c1.48911,0 2.70042,1.2097 2.70042,2.70042c0,1.51495 -1.18547,2.70688 -2.70042,2.70688c-1.48911,0 -2.70042,-1.21616 -2.70042,-2.70688c0,-1.49072 1.21131,-2.70042 2.70042,-2.70042zM49.17608,39.51142c1.48911,0 2.70042,1.2097 2.70042,2.70042c0,1.51495 -1.18547,2.70688 -2.70042,2.70688c-1.49072,0 -2.70688,-1.21616 -2.70688,-2.70688c0,-1.49072 1.21616,-2.70042 2.70688,-2.70042zM73.20853,39.51142c1.49072,0 2.70042,1.2097 2.70042,2.70042c0,1.51495 -1.18547,2.70688 -2.70042,2.70688c-1.48911,0 -2.70042,-1.21616 -2.70042,-2.70688c0,-1.49072 1.21131,-2.70042 2.70042,-2.70042zM97.66737,39.51142h21.71965c1.48911,0 2.70042,1.2097 2.70042,2.70042c0,0.72517 -0.27456,1.40512 -0.77524,1.9058c-0.36662,0.36662 -0.99489,0.80108 -1.92518,0.80108h-21.71965c-1.48911,0 -2.70042,-1.2097 -2.70042,-2.70042c0,-0.71871 0.27456,-1.38574 0.83338,-1.93164c0.48614,-0.49906 1.14832,-0.77524 1.86704,-0.77524zM157.57407,58.94411c1.17757,0.00515 2.36544,0.45318 3.27539,1.36313c1.82874,1.82874 1.85383,4.72076 -0.01292,6.55724l-2.73918,2.71334l-6.55078,-6.55078l2.82317,-2.79087c0.85946,-0.85947 2.02675,-1.29721 3.20433,-1.29207zM9.76803,63.0335h124.98167v6.72521c0,0.18089 0.0755,0.33735 0.10337,0.51037l-47.06355,46.67593c-0.38924,0.38439 -0.67349,0.85922 -0.83339,1.38251l-4.86463,15.95057c-0.3537,1.15963 -0.04522,2.42424 0.80754,3.28831c0.87532,0.8888 2.14944,1.18217 3.27539,0.85276l15.99579,-4.63206c0.53136,-0.15343 1.01589,-0.43607 1.40835,-0.82692l31.17112,-30.91271v39.2207c0,2.81994 -2.29019,5.11013 -5.11013,5.11013h-114.75496c-2.81994,0 -5.11659,-2.29019 -5.11659,-5.11013zM146.84991,67.69141l6.55078,6.54432l-53.87921,53.43344l-9.32227,2.70042l2.84255,-9.3158zM20.69892,67.84c-3.41429,0 -6.19546,2.78117 -6.19546,6.19546v10.12335c0,3.41429 2.78118,6.19546 6.19546,6.19546h44.94456c3.41429,0 6.19546,-2.78117 6.19546,-6.19546v-10.12335c0,-3.41429 -2.78117,-6.19546 -6.19546,-6.19546zM82.86674,69.875c-1.82666,0 -3.30769,1.48103 -3.30769,3.30769c0,1.82666 1.48103,3.30769 3.30769,3.30769h30.72536c1.82666,0 3.30769,-1.48103 3.30769,-3.30769c0,-1.82666 -1.48103,-3.30769 -3.30769,-3.30769zM21.11884,74.45538h44.10472v9.2835h-44.10472zM82.86674,83.73888c-1.82666,0 -3.30769,1.48103 -3.30769,3.30769c0,1.82666 1.48103,3.30769 3.30769,3.30769h16.04102c1.82666,0 3.30769,-1.48103 3.30769,-3.30769c0,-1.82666 -1.48103,-3.30769 -3.30769,-3.30769zM20.3113,99.83804c-1.82666,0 -3.30769,1.48103 -3.30769,3.30769c0,1.82666 1.48103,3.30769 3.30769,3.30769h45.7198c1.82666,0 3.30769,-1.48103 3.30769,-3.30769c0,-1.82666 -1.48103,-3.30769 -3.30769,-3.30769zM20.3113,115.40099c-1.82666,0 -3.30769,1.48103 -3.30769,3.30769c0,1.82666 1.48103,3.30769 3.30769,3.30769h45.7198c1.82666,0 3.30769,-1.48103 3.30769,-3.30769c0,-1.82666 -1.48103,-3.30769 -3.30769,-3.30769zM20.3113,130.95748c-1.82666,0 -3.30769,1.48103 -3.30769,3.30769c0,1.82666 1.48103,3.30769 3.30769,3.30769h45.7198c1.82666,0 3.30769,-1.48103 3.30769,-3.30769c0,-1.82666 -1.48103,-3.30769 -3.30769,-3.30769z"></path></g></g></svg>